<svg xmlns="http://www.w3.org/2000/svg" viewBox="0 0 100 100">
  <defs>
    <linearGradient id="brainGradient" x1="0%" y1="0%" x2="100%" y2="100%">
      <stop offset="0%" style="stop-color:#6366f1;stop-opacity:1" />
      <stop offset="100%" style="stop-color:#8b5cf6;stop-opacity:1" />
    </linearGradient>
  </defs>
  
  <!-- Brain shape -->
  <path d="M30 25c-8 0-15 7-15 15 0 4 2 8 5 11-2 3-3 7-3 11 0 8 7 15 15 15h5c3 6 9 10 16 10s13-4 16-10h1c8 0 15-7 15-15 0-4-1-8-3-11 3-3 5-7 5-11 0-8-7-15-15-15-3 0-6 1-8 2-4-4-9-7-15-7s-11 3-15 7c-2-1-5-2-8-2z" 
        fill="url(#brainGradient)" 
        stroke="#4f46e5" 
        stroke-width="2"/>
  
  <!-- Neural connections -->
  <circle cx="35" cy="35" r="2" fill="#ffffff" opacity="0.8"/>
  <circle cx="50" cy="30" r="2" fill="#ffffff" opacity="0.8"/>
  <circle cx="65" cy="35" r="2" fill="#ffffff" opacity="0.8"/>
  <circle cx="40" cy="50" r="2" fill="#ffffff" opacity="0.8"/>
  <circle cx="60" cy="50" r="2" fill="#ffffff" opacity="0.8"/>
  <circle cx="50" cy="65" r="2" fill="#ffffff" opacity="0.8"/>
  
  <!-- Connection lines -->
  <line x1="35" y1="35" x2="50" y2="30" stroke="#ffffff" stroke-width="1" opacity="0.6"/>
  <line x1="50" y1="30" x2="65" y2="35" stroke="#ffffff" stroke-width="1" opacity="0.6"/>
  <line x1="35" y1="35" x2="40" y2="50" stroke="#ffffff" stroke-width="1" opacity="0.6"/>
  <line x1="65" y1="35" x2="60" y2="50" stroke="#ffffff" stroke-width="1" opacity="0.6"/>
  <line x1="40" y1="50" x2="50" y2="65" stroke="#ffffff" stroke-width="1" opacity="0.6"/>
  <line x1="60" y1="50" x2="50" y2="65" stroke="#ffffff" stroke-width="1" opacity="0.6"/>
</svg>
